<?xml version="1.0" encoding="UTF-8"?>
<svg width="13px" height="14px" viewBox="0 0 13 14" version="1.1" xmlns="http://www.w3.org/2000/svg" xmlns:xlink="http://www.w3.org/1999/xlink">
    <!-- Generator: Sketch 64 (93537) - https://sketch.com -->
    <title>退出系统</title>
    <desc>Created with Sketch.</desc>
    <defs>
        <radialGradient cx="50%" cy="-21.3377486%" fx="50%" fy="-21.3377486%" r="25.8087437%" gradientTransform="translate(0.500000,-0.213377),scale(0.562500,1.000000),rotate(90.000000),translate(-0.500000,0.213377)" id="radialGradient-1">
            <stop stop-color="#FE5602" offset="0%"></stop>
            <stop stop-color="#FE5602" offset="0%"></stop>
            <stop stop-color="#1D1B2E" offset="100%"></stop>
        </radialGradient>
        <radialGradient cx="-1.84971628%" cy="-1.32080895%" fx="-1.84971628%" fy="-1.32080895%" r="67.9255484%" gradientTransform="translate(-0.018497,-0.013208),scale(0.562500,1.000000),rotate(26.648969),scale(1.000000,1.002058),translate(0.018497,0.013208)" id="radialGradient-2">
            <stop stop-color="#FE5602" offset="0%"></stop>
            <stop stop-color="#FE5602" offset="29.152158%"></stop>
            <stop stop-color="#1D1B2E" offset="100%"></stop>
        </radialGradient>
    </defs>
    <g id="页面-1" stroke="none" stroke-width="1" fill="none" fill-rule="evenodd">
        <g id="数据看板" transform="translate(-1782.000000, -56.000000)">
            <g id="背景" transform="translate(-0.245789, 0.000000)">
                <rect id="矩形" fill="url(#radialGradient-1)" x="0.293484036" y="0" width="1920" height="1080"></rect>
                <rect id="矩形" fill-opacity="0.1" fill="url(#radialGradient-2)" x="0" y="0" width="1920" height="1080"></rect>
            </g>
            <g id="编组-2" transform="translate(1782.000000, 53.000000)" fill="#FFFFFF">
                <path d="M8.68725217,5.06743092 C8.78970477,5.06743092 8.88567354,5.09519152 8.96804679,5.14360103 L8.97275275,5.14450935 C10.8835999,6.17238 12.1825758,8.19074735 12.1825758,10.5125068 C12.1825758,13.8766322 9.45541331,16.6037947 6.0912879,16.6037947 C2.72716249,16.6037947 2.27373675e-13,13.8766322 2.27373675e-13,10.5125068 C2.27373675e-13,8.18148712 1.30935836,6.1562845 3.23271618,5.13225782 C3.31475975,5.09082711 3.40335013,5.06743092 3.49740498,5.06743092 C3.80392302,5.06743092 4.05240498,5.31591288 4.05240498,5.62243092 C4.05240498,5.84772168 3.91816881,6.04165989 3.72531594,6.12862611 L3.73055404,6.12651277 C2.1710325,6.96768239 1.1112879,8.61633627 1.1112879,10.5125068 C1.1112879,13.2628848 3.34090985,15.4925068 6.0912879,15.4925068 C8.84166595,15.4925068 11.0712879,13.2628848 11.0712879,10.5125068 C11.0712879,8.60933225 10.0036999,6.95550627 8.43471979,6.11722459 C8.25622002,6.0264819 8.13225217,5.83893353 8.13225217,5.62243092 C8.13225217,5.31591288 8.38073413,5.06743092 8.68725217,5.06743092 Z M6.07425969,3.47450764 C6.37829788,3.47450764 6.62476953,3.72097929 6.62476953,4.02501748 L6.62476953,9.04898472 C6.62476953,9.35302291 6.37829788,9.59949455 6.07425969,9.59949455 L6.06527936,9.59949455 C5.76124117,9.59949455 5.51476953,9.35302291 5.51476953,9.04898472 L5.51476953,4.02501748 C5.51476953,3.72097929 5.76124117,3.47450764 6.06527936,3.47450764 L6.07425969,3.47450764 Z" id="退出系统"></path>
            </g>
        </g>
    </g>
</svg>